HIERARCHY
ROOT Hips
{
  OFFSET 53.4568 93.7617 8.41402
  CHANNELS 6 Xposition Yposition Zposition Zrotation Xrotation Yrotation
  JOINT spine
  {
    OFFSET 0 7.4756 0.429885
    CHANNELS 3 Zrotation Xrotation Yrotation
    JOINT spine1
    {
      OFFSET 0 9.92301 0
      CHANNELS 3 Zrotation Xrotation Yrotation
      JOINT spine2
      {
        OFFSET 0 9.50804 0
        CHANNELS 3 Zrotation Xrotation Yrotation
        JOINT Neck
        {
          OFFSET 0 24.4111 1.16384
          CHANNELS 3 Zrotation Xrotation Yrotation
          JOINT Head
          {
            OFFSET 0 7.37523 0
            CHANNELS 3 Zrotation Xrotation Yrotation
            End Site
            {
              OFFSET 0 17.8522 -5.88741
            }
          }
        }
        JOINT RightShoulder
        {
          OFFSET -4.00356 10.2679 -0.557468
          CHANNELS 3 Zrotation Xrotation Yrotation
          JOINT RightArm
          {
            OFFSET 0 13.4673 0
            CHANNELS 3 Zrotation Xrotation Yrotation
            JOINT RightArmRoll
            {
              OFFSET 0 6.79858 0
              CHANNELS 3 Zrotation Xrotation Yrotation
              JOINT RightForeArm
              {
                OFFSET 0 19.8018 0
                CHANNELS 3 Zrotation Xrotation Yrotation
                JOINT RightForeArmRoll
                {
                  OFFSET 0 7.62906 0
                  CHANNELS 3 Zrotation Xrotation Yrotation
                  JOINT RightHand
                  {
                    OFFSET 0 15.3098 0
                    CHANNELS 3 Zrotation Xrotation Yrotation
                    End Site
                    {
                      OFFSET 0 0 0
                    }
                  }
                }
              }
            }
          }
        }
        JOINT LeftShoulder
        {
          OFFSET 4.00356 10.2679 -0.557468
          CHANNELS 3 Zrotation Xrotation Yrotation
          JOINT LeftArm
          {
            OFFSET 0 13.4673 0
            CHANNELS 3 Zrotation Xrotation Yrotation
            JOINT LeftArmRoll
            {
              OFFSET 0 6.79858 0
              CHANNELS 3 Zrotation Xrotation Yrotation
              JOINT LeftForeArm
              {
                OFFSET 0 19.8018 0
                CHANNELS 3 Zrotation Xrotation Yrotation
                JOINT LeftForeArmRoll
                {
                  OFFSET 0 7.62905 0
                  CHANNELS 3 Zrotation Xrotation Yrotation
                  JOINT LeftHand
                  {
                    OFFSET 0 15.3098 0
                    CHANNELS 3 Zrotation Xrotation Yrotation
                    End Site
                    {
                      OFFSET 0 0 0
                    }
                  }
                }
              }
            }
          }
        }
      }
    }
  }
  JOINT RightUpLeg
  {
    OFFSET -6.62609 -1.21505 -1.01927
    CHANNELS 3 Zrotation Xrotation Yrotation
    JOINT RightUpLegRoll
    {
      OFFSET 0 17.9517 0
      CHANNELS 3 Zrotation Xrotation Yrotation
      JOINT RightLeg
      {
        OFFSET 0 -22.2304 0
        CHANNELS 3 Zrotation Xrotation Yrotation
        JOINT RightLegRoll
        {
          OFFSET 0 22.3032 0
          CHANNELS 3 Zrotation Xrotation Yrotation
          JOINT RightFoot
          {
            OFFSET 0 18.5636 0
            CHANNELS 3 Zrotation Xrotation Yrotation
            JOINT RightToeBase
            {
              OFFSET 0 15.5183 0
              CHANNELS 3 Zrotation Xrotation Yrotation
              End Site
              {
                OFFSET 0.00657761 7.51539 -0.866262
              }
            }
          }
        }
      }
    }
  }
  JOINT LeftUpLeg
  {
    OFFSET 6.62609 -1.21505 -1.01927
    CHANNELS 3 Zrotation Xrotation Yrotation
    JOINT LeftUpLegRoll
    {
      OFFSET 0 17.9518 0
      CHANNELS 3 Zrotation Xrotation Yrotation
      JOINT LeftLeg
      {
        OFFSET 0 22.2303 0
        CHANNELS 3 Zrotation Xrotation Yrotation
        JOINT LeftLegRoll
        {
          OFFSET 0 22.5093 0
          CHANNELS 3 Zrotation Xrotation Yrotation
          JOINT LeftFoot
          {
            OFFSET 0 18.3575 0
            CHANNELS 3 Zrotation Xrotation Yrotation
            JOINT LeftToeBase
            {
              OFFSET 0 15.5183 0
              CHANNELS 3 Zrotation Xrotation Yrotation
              End Site
              {
                OFFSET -0.029478 7.51538 -0.866263
              }
            }
          }
        }
      }
    }
  }
}
MOTION
Frames: 11
Frame Time: 0.00208333
53.012 93.6368 9.21636 -0.365971 -5.24874 -0.724987 0.26862 -1.07808 0.188317 0.539 1.84741 0.346726 0.535314 3.49243 0.33792 -10.8919 13.8651 -0.944646 8.62617 4.51021 -3.43934 68.774 -0.99575 -1.69424 103.454 -1.55267 23.6969 -5.87398e-007 -9.90951e-007 -3.33614e-006 5.75874 7.04047 -1.62329 -4.4668e-008 -1.68702e-006 -3.00256 8.02945 -4.95142 0.697668 -76.3902 -0.725236 2.33566 -94.5487 -0.663549 -22.0472 2.45933e-005 -5.85986e-007 5.96077e-006 -7.08008 3.14991 0.957959 -7.04463e-006 2.01311e-006 3.0063 -8.02924 -4.95147 -0.697682 -178.211 -2.04833 -1.63515 180 7.01532e-015 178.86 178.281 9.14846 179.692 3.27036e-006 -6.58709e-007 0.162153 -19.4743 69.0037 20.4363 8.13649 25.2327 -3.48774 -179.247 -2.93899 3.16055 4.54188e-006 -4.6773e-006 -1.08817 -1.83404 -6.57677 0.0892439 -2.31537e-006 -1.84853e-007 -0.0693505 18.5969 68.0347 -19.5347 -8.13649 25.2327 3.48774 
53.0083 93.639 9.23822 -0.367699 -5.28484 -0.723695 0.268995 -1.06618 0.184301 0.539645 1.8712 0.338647 0.53606 3.51622 0.329826 -10.9267 13.8594 -0.92322 8.63529 4.45937 -3.42209 68.7595 -0.984969 -1.68733 103.485 -1.42043 23.7028 -5.87398e-007 -9.90951e-007 -3.33614e-006 5.726 6.94868 -1.61629 -4.4668e-008 -1.68702e-006 -3.00256 8.02945 -4.95142 0.697668 -76.3723 -0.74276 2.34131 -94.5503 -0.591859 -21.9767 2.45933e-005 -5.85986e-007 5.96077e-006 -7.12048 3.16542 0.959556 -7.04463e-006 2.01311e-006 3.0063 -8.02924 -4.95147 -0.697682 -178.209 -2.08411 -1.63126 180 7.01532e-015 178.86 178.282 9.15083 179.692 3.27036e-006 -6.58709e-007 0.162153 -19.4749 69.0043 20.437 8.13649 25.2327 -3.48774 -179.249 -2.9716 3.16295 4.54188e-006 -4.6773e-006 -1.0882 -1.82858 -6.58071 0.08974 -2.31537e-006 -1.84853e-007 -0.0693505 18.5975 68.0355 -19.5354 -8.13649 25.2327 3.48774 
53.0087 93.6423 9.23129 -0.369537 -5.32119 -0.722316 0.269353 -1.05418 0.180252 0.540244 1.89518 0.330529 0.536761 3.5402 0.321693 -10.9605 13.8536 -0.902114 8.64409 4.40818 -3.4049 68.7455 -0.974408 -1.6806 103.516 -1.28894 23.7083 -5.87398e-007 -9.90951e-007 -3.33614e-006 5.69389 6.85787 -1.60934 -4.4668e-008 -1.68702e-006 -3.00256 8.02945 -4.95142 0.697668 -76.3534 -0.760842 2.34709 -94.5531 -0.519601 -21.9072 2.45933e-005 -5.85986e-007 5.96077e-006 -7.16 3.17924 0.960989 -7.04463e-006 2.01311e-006 3.0063 -8.02924 -4.95147 -0.697682 -178.206 -2.12028 -1.62733 180 7.01532e-015 178.86 178.283 9.15307 179.692 3.27036e-006 -6.58709e-007 0.162153 -19.4755 69.0049 20.4376 8.13649 25.2327 -3.48774 -179.251 -3.00429 3.16537 4.54188e-006 -4.6773e-006 -1.08822 -1.82304 -6.58491 0.0902416 -2.31537e-006 -1.84853e-007 -0.0693505 18.5982 68.0363 -19.5361 -8.13649 25.2327 3.48774 
53.0106 93.6407 9.21224 -0.371452 -5.35772 -0.720876 0.2697 -1.04211 0.176182 0.540813 1.9193 0.322383 0.537433 3.56433 0.313534 -10.9937 13.8476 -0.881232 8.65268 4.35673 -3.38774 68.732 -0.964001 -1.67399 103.547 -1.15798 23.7137 -5.87398e-007 -9.90951e-007 -3.33614e-006 5.66221 6.76775 -1.60241 -4.4668e-008 -1.68702e-006 -3.00256 8.02945 -4.95142 0.697668 -76.3337 -0.779314 2.35297 -94.5568 -0.446923 -21.8383 2.45933e-005 -5.85986e-007 5.96077e-006 -7.19891 3.1919 0.962308 -7.04463e-006 2.01311e-006 3.0063 -8.02924 -4.95147 -0.697682 -178.204 -2.15672 -1.62337 180 7.01532e-015 178.86 178.284 9.15522 179.692 3.27036e-006 -6.58709e-007 0.162153 -19.4761 69.0056 20.4382 8.13649 25.2327 -3.48774 -179.253 -3.03705 3.1678 4.54188e-006 -4.6773e-006 -1.08824 -1.81745 -6.58929 0.0907471 -2.31537e-006 -1.84853e-007 -0.0693505 18.599 68.0372 -19.5369 -8.13649 25.2327 3.48774 
53.01 93.64 9.21741 -0.37341 -5.39436 -0.719402 0.270041 -1.03 0.172098 0.541368 1.9435 0.314222 0.538091 3.58853 0.305359 -11.0264 13.8415 -0.860479 8.66116 4.30513 -3.37061 68.7187 -0.953683 -1.66746 103.579 -1.02734 23.719 -5.87398e-007 -9.90951e-007 -3.33614e-006 5.63079 6.67802 -1.59552 -4.4668e-008 -1.68702e-006 -3.00256 8.02945 -4.95142 0.697668 -76.3137 -0.798009 2.3589 -94.561 -0.373977 -21.7698 2.45933e-005 -5.85986e-007 5.96077e-006 -7.23747 3.20388 0.963561 -7.04463e-006 2.01311e-006 3.0063 -8.02924 -4.95147 -0.697682 -178.201 -2.19332 -1.61941 180 7.01532e-015 178.86 178.285 9.15734 179.692 3.27036e-006 -6.58709e-007 0.162153 -19.4766 69.0062 20.4388 8.13649 25.2327 -3.48774 -179.255 -3.06983 3.17024 4.54188e-006 -4.6773e-006 -1.08826 -1.81183 -6.59378 0.0912549 -2.31537e-006 -1.84853e-007 -0.0693505 18.5997 68.0381 -19.5377 -8.13649 25.2327 3.48774 
53.0102 93.6407 9.20492 -0.375377 -5.43102 -0.717919 0.270381 -1.01788 0.168011 0.541925 1.96772 0.306057 0.53875 3.61275 0.29718 -11.0591 13.8354 -0.839758 8.66964 4.2535 -3.35349 68.7054 -0.943386 -1.66094 103.61 -0.896779 23.7244 -5.87398e-007 -9.90951e-007 -3.33614e-006 5.59946 6.58839 -1.58863 -4.4668e-008 -1.68702e-006 -3.00256 8.02945 -4.95142 0.697668 -76.2935 -0.81676 2.36484 -94.5656 -0.300911 -21.7014 2.45933e-005 -5.85986e-007 5.96077e-006 -7.27594 3.21569 0.964799 -7.04463e-006 2.01311e-006 3.0063 -8.02924 -4.95147 -0.697682 -178.198 -2.22997 -1.61543 180 7.01532e-015 178.86 178.286 9.15946 179.692 3.27036e-006 -6.58709e-007 0.162153 -19.4772 69.0068 20.4394 8.13649 25.2327 -3.48774 -179.257 -3.10262 3.17269 4.54188e-006 -4.6773e-006 -1.08827 -1.8062 -6.59829 0.0917632 -2.31537e-006 -1.84853e-007 -0.0693505 18.6005 68.0391 -19.5385 -8.13649 25.2327 3.48774 
53.0102 93.6394 9.20507 -0.37732 -5.46762 -0.716453 0.270728 -1.00578 0.163931 0.542499 1.9919 0.2979 0.539427 3.63693 0.289008 -11.092 13.8293 -0.818975 8.67822 4.20194 -3.33636 68.692 -0.933045 -1.65439 103.641 -0.766083 23.73 -5.87398e-007 -9.90951e-007 -3.33614e-006 5.56802 6.49856 -1.58174 -4.4668e-008 -1.68702e-006 -3.00256 8.02945 -4.95142 0.697668 -76.2735 -0.835399 2.37076 -94.5702 -0.227873 -21.6328 2.45933e-005 -5.85986e-007 5.96077e-006 -7.31459 3.22784 0.966068 -7.04463e-006 2.01311e-006 3.0063 -8.02924 -4.95147 -0.697682 -178.195 -2.26653 -1.61147 180 7.01532e-015 178.86 178.287 9.16158 179.692 3.27036e-006 -6.58709e-007 0.162153 -19.4777 69.0074 20.44 8.13649 25.2327 -3.48774 -179.259 -3.1354 3.17513 4.54188e-006 -4.6773e-006 -1.08829 -1.80059 -6.60276 0.0922704 -2.31537e-006 -1.84853e-007 -0.0693505 18.6013 68.04 -19.5393 -8.13649 25.2327 3.48774 
53.017 93.6428 9.22778 -0.379205 -5.5041 -0.715031 0.271085 -0.993733 0.159867 0.543107 2.01598 0.289761 0.540136 3.66101 0.280855 -11.1253 13.8233 -0.798034 8.687 4.15055 -3.31921 68.6783 -0.922594 -1.64775 103.673 -0.635029 23.736 -5.87398e-007 -9.90951e-007 -3.33614e-006 5.53631 6.40824 -1.57483 -4.4668e-008 -1.68702e-006 -3.00256 8.02945 -4.95142 0.697668 -76.2541 -0.853759 2.37661 -94.5743 -0.155014 -21.5639 2.45933e-005 -5.85986e-007 5.96077e-006 -7.35368 3.24082 0.96742 -7.04463e-006 2.01311e-006 3.0063 -8.02924 -4.95147 -0.697682 -178.193 -2.3029 -1.60753 180 7.01532e-015 178.86 178.288 9.16378 179.692 3.27036e-006 -6.58709e-007 0.162153 -19.4783 69.008 20.4406 8.13649 25.2327 -3.48774 -179.261 -3.16814 3.17756 4.54188e-006 -4.6773e-006 -1.08831 -1.79501 -6.60709 0.0927748 -2.31537e-006 -1.84853e-007 -0.0693505 18.602 68.0409 -19.54 -8.13649 25.2327 3.48774 
53.0152 93.6417 9.2203 -0.380999 -5.54038 -0.713679 0.271458 -0.981762 0.155828 0.543762 2.0399 0.281654 0.540894 3.68493 0.272732 -11.1594 13.8175 -0.776838 8.69609 4.09944 -3.30203 68.6642 -0.911966 -1.64096 103.704 -0.503393 23.7425 -5.87398e-007 -9.90951e-007 -3.33614e-006 5.50415 6.31714 -1.56791 -4.4668e-008 -1.68702e-006 -3.00256 8.02945 -4.95142 0.697668 -76.2355 -0.871672 2.38235 -94.5779 -0.0824817 -21.4944 2.45933e-005 -5.85986e-007 5.96077e-006 -7.39347 3.25516 0.968903 -7.04463e-006 2.01311e-006 3.0063 -8.02924 -4.95147 -0.697682 -178.19 -2.33895 -1.60361 180 7.01532e-015 178.861 178.289 9.16605 179.691 3.27036e-006 -6.58709e-007 0.162153 -19.4789 69.0086 20.4412 8.13649 25.2327 -3.48774 -179.263 -3.2008 3.17998 4.54188e-006 -4.6773e-006 -1.08833 -1.7895 -6.61121 0.0932748 -2.31537e-006 -1.84853e-007 -0.0693505 18.6027 68.0417 -19.5408 -8.13649 25.2327 3.48774 
53.0152 93.6432 9.22444 -0.382669 -5.57637 -0.712423 0.271854 -0.9699 0.151825 0.544482 2.06361 0.273588 0.541715 3.70864 0.26465 -11.1945 13.8119 -0.755293 8.70559 4.04873 -3.2848 68.6494 -0.901096 -1.63399 103.734 -0.370956 23.7497 -5.87398e-007 -9.90951e-007 -3.33614e-006 5.47135 6.22495 -1.56095 -4.4668e-008 -1.68702e-006 -3.00256 8.02945 -4.95142 0.697668 -76.218 -0.888971 2.38794 -94.5804 -0.0104241 -21.4239 2.45933e-005 -5.85986e-007 5.96077e-006 -7.43423 3.27134 0.970566 -7.04463e-006 2.01311e-006 3.0063 -8.02924 -4.95147 -0.697682 -178.188 -2.37457 -1.59974 180 7.01532e-015 178.861 178.29 9.16843 179.691 3.27036e-006 -6.58709e-007 0.162153 -19.4795 69.0092 20.4418 8.13649 25.2327 -3.48774 -179.265 -3.23338 3.18238 4.54188e-006 -4.6773e-006 -1.08836 -1.78406 -6.61504 0.0937688 -2.31537e-006 -1.84853e-007 -0.0693505 18.6033 68.0424 -19.5414 -8.13649 25.2327 3.48774 
53.0162 93.6444 9.22521 -0.384182 -5.612 -0.711289 0.272277 -0.958176 0.147867 0.545281 2.08703 0.265577 0.542615 3.73207 0.25662 -11.2309 13.8066 -0.733303 8.71559 3.99851 -3.2675 68.6338 -0.889918 -1.62676 103.765 -0.237498 23.7577 -5.87398e-007 -9.90951e-007 -3.33614e-006 5.43775 6.13139 -1.55394 -4.4668e-008 -1.68702e-006 -3.00256 8.02945 -4.95142 0.697668 -76.2019 -0.905489 2.39335 -94.5816 0.0610104 -21.3523 2.45933e-005 -5.85986e-007 5.96077e-006 -7.47621 3.28987 0.972459 -7.04463e-006 2.01311e-006 3.0063 -8.02924 -4.95147 -0.697682 -178.186 -2.40964 -1.59592 180 7.01532e-015 178.861 178.291 9.17098 179.691 3.27036e-006 -6.58709e-007 0.162153 -19.4801 69.0099 20.4425 8.13649 25.2327 -3.48774 -179.268 -3.26584 3.18476 4.54188e-006 -4.6773e-006 -1.0884 -1.77873 -6.6185 0.0942549 -2.31537e-006 -1.84853e-007 -0.0693505 18.6038 68.043 -19.5419 -8.13649 25.2327 3.48774 
